<svg width="161" height="33" viewBox="0 0 161 33" fill="none" xmlns="http://www.w3.org/2000/svg">
<g clip-path="url(#clip0_86_30166)">
<path opacity="0.945" fill-rule="evenodd" clip-rule="evenodd" d="M13.077 0.346191C13.6923 0.346191 14.3077 0.346191 14.9231 0.346191C16.6469 1.621 18.4931 2.74921 20.4616 3.73081C21.2118 4.39422 21.2631 5.11216 20.6154 5.88465C14.1161 9.62093 7.60327 13.3132 1.07696 16.9616C0.661829 16.8552 0.251571 16.7527 -0.153809 16.6539C-0.153809 13.7821 -0.153809 10.9103 -0.153809 8.0385C4.31776 5.54745 8.72801 2.98335 13.077 0.346191Z" fill="white"/>
<path opacity="0.893" fill-rule="evenodd" clip-rule="evenodd" d="M67.8461 4.65383C69.0937 4.55408 70.3245 4.65663 71.5384 4.96153C72.2187 5.96325 72.9368 6.93762 73.6922 7.8846C72.5639 8.08974 71.4359 8.08974 70.3076 7.8846C69.879 7.05897 69.4688 7.00768 69.0768 7.73076C67.8587 8.08765 66.6279 8.13891 65.3845 7.8846C66.2716 6.84568 67.0919 5.76876 67.8461 4.65383Z" fill="white"/>
<path opacity="0.929" fill-rule="evenodd" clip-rule="evenodd" d="M23.2309 5.88452C24.9689 6.214 26.5587 6.93194 28.0001 8.03837C28.2052 9.67938 28.2052 11.3204 28.0001 12.9614C24.4871 15.1028 20.9486 17.2053 17.3847 19.2691C16.6062 19.7066 15.7857 19.8091 14.9232 19.5768C14.4652 17.9826 14.26 16.3415 14.3078 14.6538C14.318 13.4582 14.4206 12.2787 14.6155 11.1153C17.4995 9.35268 20.3713 7.60908 23.2309 5.88452Z" fill="white"/>
<path opacity="0.906" fill-rule="evenodd" clip-rule="evenodd" d="M49.3846 18.8076C49.7729 20.2794 50.2856 21.7153 50.9231 23.1153C49.4982 23.4727 48.0622 23.524 46.6154 23.2692C46.2197 22.6469 45.912 21.9803 45.6923 21.2692C43.9579 20.9113 42.2142 20.86 40.4616 21.1153C40.0659 21.7376 39.7582 22.4042 39.5385 23.1153C38.0102 23.473 36.4717 23.5242 34.9231 23.2692C36.9745 18.4486 39.0256 13.6282 41.0769 8.80764C42.4219 8.55302 43.7554 8.60428 45.0769 8.96148C46.4603 12.3001 47.8963 15.5822 49.3846 18.8076ZM42.9231 14.4999C43.5086 15.4322 43.9191 16.4578 44.1539 17.5769C43.3086 17.6733 42.488 17.5707 41.6923 17.2692C42.1046 16.3371 42.5148 15.414 42.9231 14.4999Z" fill="white"/>
<path opacity="0.904" fill-rule="evenodd" clip-rule="evenodd" d="M49.3845 18.8076C48.4811 11.3519 51.7633 8.01861 59.2307 8.80759C60.4193 9.17101 61.4962 9.7351 62.4614 10.4999C62.0821 11.6015 61.4153 12.5758 60.4614 13.423C59.5488 13.2305 58.6257 12.9228 57.6922 12.4999C54.5839 12.5337 53.1993 14.1234 53.5384 17.2691C54.6331 19.6885 56.4279 20.4578 58.923 19.5768C59.2017 19.0539 59.3042 18.4898 59.2307 17.8845C58.3076 17.8845 57.3845 17.8845 56.4614 17.8845C56.4614 16.8589 56.4614 15.8332 56.4614 14.8076C58.7177 14.8076 60.9744 14.8076 63.2307 14.8076C63.2817 17.0663 63.2307 19.3227 63.0768 21.5768C59.5934 24.094 55.9525 24.3504 52.1537 22.3461C50.9202 21.3735 49.9971 20.1941 49.3845 18.8076Z" fill="white"/>
<path opacity="0.901" fill-rule="evenodd" clip-rule="evenodd" d="M95.2307 8.65387C98.5941 8.01397 101.363 8.9883 103.538 11.5769C102.461 12.4487 101.385 13.3205 100.308 14.1923C98.5396 11.9643 96.6935 11.8618 94.7692 13.8846C93.6147 16.1891 94.0762 18.0866 96.1538 19.5769C97.8728 19.8717 99.3599 19.4101 100.615 18.1923C101.868 18.7478 102.791 19.5684 103.385 20.6539C100.708 23.6691 97.4768 24.4384 93.6922 22.9616C90.0879 20.4558 89.011 17.1225 90.4615 12.9616C91.3996 10.7791 92.9892 9.3432 95.2307 8.65387Z" fill="white"/>
<path opacity="0.901" fill-rule="evenodd" clip-rule="evenodd" d="M114.308 8.65382C115.657 8.55364 116.99 8.65622 118.308 8.96152C120.256 13.6795 122.205 18.3974 124.154 23.1154C122.629 23.4212 121.09 23.5238 119.538 23.4231C119.333 22.6025 119.128 21.782 118.923 20.9615C117.077 20.9615 115.231 20.9615 113.385 20.9615C113.179 21.782 112.974 22.6025 112.769 23.4231C109.898 23.4231 107.026 23.4231 104.154 23.4231C104.154 18.6025 104.154 13.782 104.154 8.96152C105.59 8.96152 107.026 8.96152 108.462 8.96152C108.41 13.373 108.462 17.7832 108.615 22.1923C110.433 17.6361 112.33 13.1233 114.308 8.65382ZM115.846 14.5C116.116 14.4597 116.321 14.5623 116.462 14.8077C116.769 15.6282 117.077 16.4487 117.385 17.2692C116.564 17.6795 115.744 17.6795 114.923 17.2692C115.323 16.3686 115.631 15.4455 115.846 14.5Z" fill="white"/>
<path opacity="0.908" fill-rule="evenodd" clip-rule="evenodd" d="M129.385 8.65388C130.821 8.65388 132.256 8.65388 133.692 8.65388C134.305 11.2617 135.074 13.8258 136 16.3462C136.802 13.7856 137.572 11.2215 138.308 8.65388C139.621 8.56249 140.903 8.66505 142.154 8.96157C142.975 11.4266 143.795 13.8882 144.615 16.3462C145.354 13.8736 146.123 11.4121 146.923 8.96157C148.359 8.55132 149.795 8.55132 151.231 8.96157C149.692 13.6795 148.154 18.3975 146.615 23.1154C145.318 23.5147 144.036 23.5147 142.769 23.1154C142.009 20.7333 141.189 18.3744 140.308 16.0385C139.163 18.3958 138.291 20.8574 137.692 23.4231C136.379 23.5145 135.097 23.4119 133.846 23.1154C132.139 18.3526 130.651 13.5321 129.385 8.65388Z" fill="white"/>
<path opacity="0.881" fill-rule="evenodd" clip-rule="evenodd" d="M160.154 8.65396C160.154 9.67959 160.154 10.7053 160.154 11.7309C159.156 12.2144 158.335 12.9323 157.692 13.8847C158.715 14.396 159.535 15.1139 160.154 16.0386C160.154 17.1668 160.154 18.295 160.154 19.4232C158.128 21.8838 155.564 22.5505 152.462 21.4232C151.41 21.0386 150.59 20.3719 150 19.4232C150.559 18.7103 151.174 18.0437 151.846 17.4232C152.838 17.8696 153.915 18.2285 155.077 18.5001C156.884 18.3288 157.14 17.6621 155.846 16.5001C154.929 16.3469 154.006 16.2956 153.077 16.3463C153.074 15.7165 152.971 15.1012 152.769 14.5001C153.525 13.59 154.345 12.7182 155.231 11.8847C153.784 11.8319 152.348 11.6781 150.923 11.4232C151.272 10.6325 151.529 9.81196 151.692 8.96165C154.487 8.65873 157.307 8.55618 160.154 8.65396Z" fill="white"/>
<path opacity="0.927" fill-rule="evenodd" clip-rule="evenodd" d="M63.8462 8.96143C67.641 8.96143 71.436 8.96143 75.2308 8.96143C75.2308 10.1922 75.2308 11.423 75.2308 12.6537C72.7693 12.6537 70.3077 12.6537 67.8462 12.6537C67.8462 13.2691 67.8462 13.8845 67.8462 14.4999C70.1025 14.4999 72.3591 14.4999 74.6154 14.4999C74.6154 15.6281 74.6154 16.7563 74.6154 17.8845C72.3591 17.8845 70.1025 17.8845 67.8462 17.8845C67.8462 18.4999 67.8462 19.1153 67.8462 19.7307C70.3077 19.7307 72.7693 19.7307 75.2308 19.7307C75.2308 20.9614 75.2308 22.1922 75.2308 23.423C71.436 23.423 67.641 23.423 63.8462 23.423C63.8462 18.6024 63.8462 13.7819 63.8462 8.96143Z" fill="white"/>
<path opacity="0.919" fill-rule="evenodd" clip-rule="evenodd" d="M75.8462 8.96145C77.1834 8.91046 78.5166 8.96175 79.8462 9.11529C81.6563 11.2327 83.3486 13.4379 84.9231 15.7307C85.0769 13.4766 85.128 11.2202 85.0769 8.96145C86.5129 8.96145 87.9486 8.96145 89.3846 8.96145C89.3846 13.782 89.3846 18.6025 89.3846 23.423C88.0357 23.5232 86.7025 23.4206 85.3846 23.1153C83.5899 20.7563 81.7948 18.3974 80 16.0384C79.8462 18.4978 79.7951 20.9593 79.8462 23.423C78.513 23.423 77.1794 23.423 75.8462 23.423C75.8462 18.6025 75.8462 13.782 75.8462 8.96145Z" fill="white"/>
<path opacity="0.934" fill-rule="evenodd" clip-rule="evenodd" d="M-0.153809 24.6539C-0.153809 22.9103 -0.153809 21.1668 -0.153809 19.4232C3.66253 17.1051 7.55998 14.9513 11.5385 12.9616C12.1151 12.9277 12.5767 13.1328 12.9231 13.577C12.9744 14.8591 13.0257 16.1411 13.077 17.4232C13.1114 18.9442 12.9575 20.4314 12.6154 21.8847C9.75555 23.6477 6.83247 25.2888 3.84619 26.8078C2.46688 26.1695 1.13355 25.4516 -0.153809 24.6539Z" fill="white"/>
<path opacity="0.937" fill-rule="evenodd" clip-rule="evenodd" d="M14.9232 32.346C14.2052 32.346 13.4873 32.346 12.7693 32.346C11.1485 31.1226 9.40491 30.0457 7.53854 29.1153C6.54719 28.5028 6.39334 27.7336 7.077 26.8076C13.61 23.0291 20.1741 19.3368 26.7693 15.7307C27.2957 15.712 27.7059 15.9171 28.0001 16.346C28.2052 19.0127 28.2052 21.6794 28.0001 24.346C23.6695 27.0927 19.3105 29.7594 14.9232 32.346Z" fill="white"/>
</g>
<defs>
<clipPath id="clip0_86_30166">
<rect width="160.308" height="32" fill="white" transform="translate(0 0.5)"/>
</clipPath>
</defs>
</svg>
